<svg width="57.376" height="57.376" xmlns="http://www.w3.org/2000/svg">

 <g>
  <title>background</title>
  <rect fill="none" id="canvas_background" height="402" width="582" y="-1" x="-1"/>
 </g>
 <g>
  <title>Layer 1</title>
  <g id="svg_1">
   <path stroke="null" stroke-width="0" id="svg_4" fill="#3498db" d="m56.012474,6.431442l-5.857767,0c-0.899318,0 -1.805142,0.769454 -2.027939,1.717975l-6.062675,25.863596c-0.222797,0.948521 -0.427705,1.717975 -0.456977,1.717975c-0.032525,0 -0.276463,-0.758817 -0.546421,-1.693154l-7.498657,-25.915011c-0.269958,-0.934337 -1.216438,-1.689608 -2.115756,-1.689608l-5.112942,0c-0.899318,0 -1.852303,0.755271 -2.130393,1.686063l-7.526303,25.170378c-0.278089,0.930792 -0.528533,1.686063 -0.561058,1.686063c-0.030899,0 -0.234181,-0.773 -0.448846,-1.721521l-5.732545,-25.101233c-0.216292,-0.952067 -1.118863,-1.721521 -2.018181,-1.721521l-6.552177,0c-0.899318,0 -1.41972,0.762363 -1.164398,1.700246l11.187001,41.112622c0.255322,0.93611 1.188792,1.700246 2.08811,1.700246l4.475451,0c0.899318,0 1.847425,-0.76059 2.120635,-1.689608l8.010927,-27.430872c0.273211,-0.934337 0.518775,-1.689608 0.5513,-1.689608c0.030899,0 0.278089,0.755271 0.5513,1.689608l8.007675,27.430872c0.273211,0.929019 1.21969,1.689608 2.120635,1.689608l4.764924,0c0.900945,0 1.831162,-0.764136 2.081605,-1.705565l11.024376,-41.110849c0.250443,-0.934337 -0.269958,-1.6967 -1.170903,-1.6967z"/>
  </g>
  <g id="svg_5"/>
  <g id="svg_6"/>
  <g id="svg_7"/>
  <g id="svg_8"/>
  <g id="svg_9"/>
  <g id="svg_10"/>
  <g id="svg_11"/>
  <g id="svg_12"/>
  <g id="svg_13"/>
  <g id="svg_14"/>
  <g id="svg_15"/>
  <g id="svg_16"/>
  <g id="svg_17"/>
  <g id="svg_18"/>
  <g id="svg_19"/>
 </g>
</svg>